<?xml version="1.0" encoding="utf-8"?>
<svg width="309.18" height="490.97" enable-background="new 0 0 512 512" version="1.1" viewBox="0 0 400.9933776855469 412.3134765625" xmlns="http://www.w3.org/2000/svg">
  <g transform="matrix(0.762628, 0.662942, -0.690703, 0.794563, 197.445969, -168.062592)">
    <g stroke-width="9" transform="matrix(1, 0, 0, 1, 1.827205, 0.000716)">
      <path d="m204.19 62.194c14.147-20.472 29.339-41.613 50.963-54.72 21.323 12.782 36.366 33.547 50.311 53.656 32.847 49.754 52.929 109.52 48.878 169.58 10.615 8.898 21.537 17.441 31.994 26.521 15.011 13.797 22.02 35.319 18.406 55.327-5.036 25.275-9.876 50.607-15.206 75.813-2.963 12.968-20.508 18.905-30.823 10.62-17.121-14.291-33.816-29.108-50.932-43.417-12.95 12.462-30.153 20.772-48.214 21.773-20.791 1.466-41.375-7.156-56.448-21.242-12.28 9.401-23.666 20.686-35.664 30.755-5.799 4.66-10.621 10.784-17.484 13.966-10.64 4.565-24.342-2.248-26.747-13.685-5.479-24.642-11.203-49.24-16.52-73.92-4.321-20.878 3.332-43.61 19.419-57.607 9.313-7.822 18.756-15.487 28.243-23.096 2.643-1.39 1.315-4.596 1.465-6.951-2.828-57.951 16.967-115.23 48.359-163.37zm16.803 76.332c-12.424 15.994-10.921 40.768 3.488 55.052 15.255 16.809 44.15 17.422 60.106 1.29 12.317-11.253 16.482-30.146 10.603-45.671-5.387-14.967-19.809-26.195-35.671-27.591-14.648-1.686-29.815 5.053-38.526 16.92z" stroke="#000" stroke-width="9" style="fill: rgb(56, 115, 174);"/>
    </g>
    <path d="M 197.881 386.867 C 197.668 379.601 206.711 374.605 212.823 378.45 C 238.693 391.77 270.85 391.764 296.719 378.443 C 302.656 374.798 311.455 379.176 311.674 386.246 C 311.761 401.678 311.779 417.126 311.698 432.563 C 311.817 440.096 301.866 444.9 296.017 440.189 C 291.565 436.263 287.55 431.848 283.267 427.728 C 276.491 440.929 270.104 454.33 263.272 467.5 C 259.991 473.775 249.739 473.817 246.395 467.605 C 239.525 454.41 233.182 440.929 226.274 427.747 C 222.053 431.904 218.026 436.295 213.58 440.215 C 207.756 444.949 197.824 440.053 197.905 432.568 C 197.781 417.339 197.862 402.103 197.881 386.867 Z" style="fill: rgb(255, 106, 0);"/>
  </g>
  <text x="374.078" y="362.897" style="white-space: pre; fill: rgb(51, 51, 51); font-family: sans-serif; font-size: 24px;"> </text>
  <text x="411.347" y="402.927" style="white-space: pre; fill: rgb(51, 51, 51); font-family: sans-serif; font-size: 24px;"> </text>
</svg>