<?xml version="1.0" encoding="utf-8"?>
<svg width="309.18" height="490.97" enable-background="new 0 0 512 512" version="1.1" viewBox="0 0 398.232666015625 411.623291015625" xmlns="http://www.w3.org/2000/svg">
  <defs>
    <pattern id="pattern-0" viewBox="0 0 100 100" patternUnits="userSpaceOnUse" preserveAspectRatio="none" width="100" height="100"/>
    <pattern id="pattern-1" viewBox="0 0 100 100" patternUnits="userSpaceOnUse" preserveAspectRatio="none" width="100" height="100"/>
    <pattern id="pattern-2" viewBox="0 0 100 100" patternUnits="userSpaceOnUse" preserveAspectRatio="none" width="100" height="100"/>
    <pattern id="pattern-3" viewBox="0 0 100 100" patternUnits="userSpaceOnUse" preserveAspectRatio="none" width="100" height="100"/>
    <pattern id="pattern-4" viewBox="0 0 100 100" patternUnits="userSpaceOnUse" preserveAspectRatio="none" width="100" height="100"/>
  </defs>
  <g transform="matrix(0.762628, 0.662942, -0.690703, 0.794563, 197.445969, -168.062592)">
    <g stroke-width="9" transform="matrix(1, 0, 0, 1, 1.827205, 0.000716)">
      <path d="m204.19 62.194c14.147-20.472 29.339-41.613 50.963-54.72 21.323 12.782 36.366 33.547 50.311 53.656 32.847 49.754 52.929 109.52 48.878 169.58 10.615 8.898 21.537 17.441 31.994 26.521 15.011 13.797 22.02 35.319 18.406 55.327-5.036 25.275-9.876 50.607-15.206 75.813-2.963 12.968-20.508 18.905-30.823 10.62-17.121-14.291-33.816-29.108-50.932-43.417-12.95 12.462-30.153 20.772-48.214 21.773-20.791 1.466-41.375-7.156-56.448-21.242-12.28 9.401-23.666 20.686-35.664 30.755-5.799 4.66-10.621 10.784-17.484 13.966-10.64 4.565-24.342-2.248-26.747-13.685-5.479-24.642-11.203-49.24-16.52-73.92-4.321-20.878 3.332-43.61 19.419-57.607 9.313-7.822 18.756-15.487 28.243-23.096 2.643-1.39 1.315-4.596 1.465-6.951-2.828-57.951 16.967-115.23 48.359-163.37zm16.803 76.332c-12.424 15.994-10.921 40.768 3.488 55.052 15.255 16.809 44.15 17.422 60.106 1.29 12.317-11.253 16.482-30.146 10.603-45.671-5.387-14.967-19.809-26.195-35.671-27.591-14.648-1.686-29.815 5.053-38.526 16.92z" stroke-width="9" style="paint-order: fill markers; stroke: rgb(56, 115, 174); fill: rgb(205, 204, 204);"/>
    </g>
    <path d="M 204.781 398.483 C 204.568 391.217 213.611 386.221 219.723 390.066 C 243.867 402.497 273.488 403.322 298.362 392.547 C 300.14 391.777 301.893 390.948 303.619 390.059 C 309.556 386.414 318.355 390.792 318.574 397.862 C 318.661 413.294 318.679 428.742 318.598 444.179 C 318.717 451.712 308.766 456.516 302.917 451.805 C 298.465 447.879 294.45 443.464 290.167 439.344 C 283.391 452.545 277.004 465.946 270.172 479.116 C 266.891 485.391 256.639 485.433 253.295 479.221 C 246.425 466.026 240.082 452.545 233.174 439.363 C 228.953 443.52 224.926 447.911 220.48 451.831 C 214.656 456.565 204.724 451.669 204.805 444.184 C 204.681 428.954 204.762 413.719 204.781 398.483 Z" style="fill: rgb(255, 60, 0);" transform="matrix(1, 0, 0, 1, 0.000016, -0.000009)"/>
  </g>
  <text x="374.078" y="362.897" style="white-space: pre; fill: rgb(51, 51, 51); font-family: sans-serif; font-size: 24px;"> </text>
  <text x="411.347" y="402.927" style="white-space: pre; fill: rgb(51, 51, 51); font-family: sans-serif; font-size: 24px;"> </text>
</svg>